<svg width="54" height="35" viewBox="0 0 54 35" fill="none" xmlns="http://www.w3.org/2000/svg">
<path d="M54 22.3301C54 24.902 53.4238 27.1268 52.2714 29.0044C51.119 30.882 49.5346 32.3294 47.518 33.3463C45.5013 34.3536 43.1863 34.8572 40.5729 34.8572C37.6611 34.8572 35.1043 34.2363 32.9025 32.9943C30.711 31.7426 28.9978 29.9677 27.7631 27.6695C26.7256 25.7139 26.1278 23.4493 25.9695 20.8757H31.7405C31.8716 22.5127 32.2279 23.9411 32.8099 25.1611C33.5609 26.7356 34.6052 27.9336 35.9428 28.755C37.2804 29.5667 38.8341 29.9726 40.6038 29.9726C42.2089 29.9726 43.5979 29.6792 44.7708 29.0924C45.9541 28.5057 46.8646 27.6744 47.5025 26.5987C48.1125 25.5608 48.4306 24.3531 48.4574 22.9755H41.1748V18.7216H54V22.3301ZM40.4032 3.99405C42.1523 3.99406 43.7831 4.23855 45.2955 4.7275C46.808 5.20668 48.1507 5.89119 49.3237 6.7811C50.5069 7.671 51.4792 8.7272 52.2406 9.94956C53.002 11.1719 53.501 12.5215 53.7376 13.9982H47.9038C47.6466 13.2061 47.2916 12.4971 46.8389 11.8713C46.3965 11.2356 45.8615 10.6928 45.2338 10.243C44.6165 9.79306 43.9065 9.4557 43.104 9.23079C42.3015 8.99607 41.4269 8.87872 40.4803 8.87872C38.7827 8.87872 37.2701 9.28457 35.9428 10.0963C34.6156 10.908 33.5713 12.1011 32.8099 13.6755C32.2796 14.7801 31.9369 16.0554 31.7809 17.5012H26.0093C26.1535 15.8508 26.486 14.3359 27.0069 12.9567C27.7374 11.0498 28.756 9.43126 30.0627 8.10132C31.3694 6.76157 32.9025 5.7445 34.6618 5.05018C36.4213 4.34607 38.335 3.99405 40.4032 3.99405Z" fill="#3FC4BB"/>
<path d="M9.88452 29.6567H14.9606C17.335 29.6567 19.3155 29.2648 20.9021 28.4812C22.4887 27.6876 23.6816 26.5071 24.4804 24.9398C25.068 23.7797 25.4392 22.4075 25.5946 20.8234H31.7311C31.5273 23.2852 30.8912 25.451 29.8227 27.3208C28.5135 29.6316 26.6218 31.4048 24.1476 32.6405C21.6844 33.8763 18.7219 34.4941 15.2602 34.4941H3.70993V20.8234H9.88452V29.6567ZM15.4931 3.63097C18.8772 3.63097 21.7843 4.24884 24.2141 5.48456C26.6551 6.71024 28.5302 8.47342 29.8394 10.7741C30.9146 12.6634 31.5482 14.8576 31.7405 17.3566H25.6056C25.4569 15.7282 25.082 14.3278 24.4804 13.1552C23.6816 11.5879 22.4999 10.4174 20.9355 9.64383C19.3821 8.86023 17.4516 8.46839 15.1438 8.46839H9.88452V17.3566H3.70993V8.91572C6.92768 8.91564 9.53616 6.55368 9.53616 3.64007C9.53616 3.63704 9.53606 3.634 9.53606 3.63097H15.4931Z" fill="#3FC4BB"/>
<path d="M4.12214 7.62502C6.39873 7.62502 8.24428 5.9181 8.24428 3.81251C8.24428 1.70692 6.39873 0 4.12214 0C1.84554 0 0 1.70692 0 3.81251C0 5.9181 1.84554 7.62502 4.12214 7.62502Z" fill="#7EEDB8"/>
</svg>
