<svg width="23" height="22" viewBox="0 0 23 22" fill="none" xmlns="http://www.w3.org/2000/svg">
<path d="M11.1105 17.6011C14.7529 17.6011 17.7231 14.631 17.7231 10.9886C17.7231 7.34614 14.7529 4.37598 11.1105 4.37598C7.46809 4.37598 4.49792 7.34614 4.49792 10.9886C4.49792 14.631 7.46809 17.6011 11.1105 17.6011ZM6.09912 10.9886C6.09912 8.22618 8.34813 5.97717 11.1105 5.97717C13.8729 5.97717 16.1219 8.22618 16.1219 10.9886C16.1219 13.7509 13.8729 15.9999 11.1105 15.9999C8.34813 15.9999 6.09912 13.7509 6.09912 10.9886Z" fill="white"/>
<path d="M17.6865 21.9767H4.4858C2.00456 21.9767 0 19.96 0 17.4787V4.4858C0 2.01678 2.01678 0 4.4858 0H17.6865C20.1678 0 22.1723 2.01678 22.1723 4.4858V17.4787C22.1723 19.96 20.1555 21.9767 17.6865 21.9767ZM4.49802 1.63787C2.92127 1.63787 1.65009 2.92127 1.65009 4.4858V17.4787C1.65009 19.0555 2.93349 20.3389 4.49802 20.3389H17.6987C19.2755 20.3389 20.5467 19.0555 20.5467 17.4787V4.4858C20.5467 2.92127 19.2633 1.63787 17.6987 1.63787H4.49802Z" fill="white"/>
</svg>
