<svg width="22" height="18" viewBox="0 0 22 18" fill="none" xmlns="http://www.w3.org/2000/svg">
<path d="M21.6712 2.16345C20.9378 2.4568 20.1433 2.66459 19.3122 2.76237C20.1922 2.24901 20.8767 1.4423 21.2312 0.488915C21.2556 0.427801 21.1823 0.378909 21.1334 0.403355C20.3022 0.867825 19.3977 1.19784 18.4443 1.39341C17.6254 0.537807 16.452 0 15.1564 0C12.6751 0 10.6584 1.98011 10.6584 4.42468C10.6584 4.76692 10.695 5.10917 10.7806 5.42696C7.05261 5.24362 3.75243 3.49574 1.54008 0.831156C1.52786 0.818933 1.50341 0.818933 1.50341 0.831156C1.1245 1.47897 0.916716 2.22457 0.916716 3.01905C0.916716 4.52247 1.67453 5.85476 2.83571 6.64925C2.86015 6.66147 2.83571 6.69814 2.82349 6.69814C2.139 6.66147 1.49119 6.47813 0.916716 6.17256C0.904493 6.17256 0.880047 6.17256 0.880047 6.197C0.880047 6.39257 0.953384 7.26039 1.18562 7.82265C1.74787 9.20383 2.97016 10.255 4.4858 10.5606C4.10689 10.6584 3.70353 10.7195 3.30018 10.7195C3.03128 10.7195 2.75015 10.695 2.49347 10.6461C2.46902 10.6461 2.4568 10.6584 2.46902 10.6828C3.0435 12.394 4.66914 13.653 6.57591 13.7141C6.60036 13.7141 6.61258 13.7507 6.58813 13.763C5.06027 14.9241 3.15351 15.6086 1.06339 15.6086C0.708928 15.6086 0.342241 15.5842 0 15.5475C1.99233 16.8065 4.35135 17.5276 6.89371 17.5276C10.3895 17.5276 13.2129 16.3175 15.3153 14.4963C17.4298 12.6507 18.7988 10.1572 19.3733 7.61486C19.5688 6.72259 19.6788 5.81809 19.6788 4.93804C19.6788 4.74248 19.6788 4.55914 19.6666 4.36357C20.4856 3.78909 21.1945 3.08017 21.769 2.27346C21.8056 2.21234 21.7567 2.139 21.6834 2.17567L21.6712 2.16345Z" fill="white"/>
</svg>
