<?xml version="1.0" standalone="no"?>
<!DOCTYPE svg PUBLIC "-//W3C//DTD SVG 20010904//EN"
 "http://www.w3.org/TR/2001/REC-SVG-20010904/DTD/svg10.dtd">
<svg version="1.0" xmlns="http://www.w3.org/2000/svg"
 width="640.000000pt" height="702.000000pt" viewBox="0 0 640.000000 702.000000"
 preserveAspectRatio="xMidYMid meet">

<g transform="translate(0.000000,702.000000) scale(0.100000,-0.100000)"
fill="#000000" stroke="none">
<path d="M0 5237 c0 -1413 3 -1786 13 -1796 9 -11 9 -13 0 -7 -10 6 -13 -340
-13 -1713 l0 -1721 3160 0 3160 0 1 83 c1 45 3 150 4 232 2 83 7 245 12 360
13 298 7 581 -17 805 -5 52 -13 135 -16 184 -7 84 -6 88 12 83 10 -3 34 -8 52
-12 l32 -7 0 2646 0 2646 -3200 0 -3200 0 0 -1783z m5735 132 c15 -23 46 -20
-590 -64 -1897 -133 -2055 -142 -2055 -117 0 4 215 22 478 41 262 18 819 59
1237 91 801 60 920 67 930 49z m-3072 -199 c-4 -4 -125 -13 -268 -19 -143 -7
-397 -19 -565 -27 -927 -44 -1224 -52 -1235 -34 -4 6 32 10 102 10 59 0 200 5
313 10 352 17 1462 70 1525 72 77 4 139 -2 128 -12z m3177 -49 c0 -13 -38 -19
-160 -25 -58 -3 -154 -8 -215 -11 -60 -3 -225 -12 -365 -20 -140 -7 -325 -17
-410 -20 -85 -4 -172 -8 -193 -10 -21 -2 -120 -7 -220 -10 -100 -4 -195 -8
-212 -10 -78 -11 -492 -17 -498 -8 -4 6 89 14 256 22 144 6 359 16 477 21 118
6 278 15 355 20 77 6 280 17 450 26 171 8 360 19 420 23 160 12 315 12 315 2z
m-1165 -137 c105 -6 123 -9 114 -18 -7 -7 -400 22 -407 29 -4 4 36 5 88 2 52
-4 145 -10 205 -13z m-1439 -7 c8 -7 -99 -14 -726 -47 -863 -46 -1109 -55
-1121 -43 -7 7 40 13 158 18 92 4 494 24 893 45 685 36 784 39 796 27z m-1631
-162 c52 -11 71 -30 85 -88 11 -43 30 -65 30 -34 0 8 24 26 53 41 50 25 59 26
135 20 63 -5 82 -10 82 -22 0 -10 7 -13 25 -10 l25 5 0 -108 c0 -102 -1 -108
-20 -104 -11 2 -20 0 -20 -6 0 -5 -7 -9 -15 -9 -8 0 -15 -4 -15 -10 0 -5 -9
-10 -20 -10 -12 0 -32 -11 -44 -24 -13 -12 -31 -26 -39 -29 -8 -3 -28 -22 -43
-42 -27 -36 -27 -38 -9 -51 26 -19 29 -18 63 20 38 43 87 48 97 9 l6 -24 24
30 c14 16 26 37 26 47 1 11 5 6 9 -11 4 -16 8 -97 9 -178 l1 -149 -87 7 c-123
9 -326 34 -365 46 -18 5 -45 9 -60 9 -23 0 -28 4 -28 24 0 28 22 48 53 49 21
0 71 59 65 78 -3 7 -37 -7 -88 -36 l-25 -14 -7 52 c-3 28 -6 141 -7 250 -1
189 -2 199 -21 204 -16 4 -18 9 -9 25 8 15 14 17 24 8 10 -8 16 -4 26 19 8 18
20 29 29 27 8 -1 33 -6 55 -11z m1575 -9 c0 -8 -6 -16 -14 -19 -10 -4 -12 0
-9 14 6 22 23 26 23 5z m70 -21 c0 -8 -4 -15 -10 -15 -5 0 -7 7 -4 15 4 8 8
15 10 15 2 0 4 -7 4 -15z m-55 -15 c-3 -5 -16 -10 -28 -9 -20 1 -20 2 3 9 14
4 26 8 28 9 2 1 0 -3 -3 -9z m116 -13 c-10 -9 -11 -8 -5 6 3 10 9 15 12 12 3
-3 0 -11 -7 -18z m76 -9 c-3 -8 -6 -5 -6 6 -1 11 2 17 5 13 3 -3 4 -12 1 -19z
m-100 6 c-3 -3 -12 -4 -19 -1 -8 3 -5 6 6 6 11 1 17 -2 13 -5z m220 -36 c-3
-8 -6 -5 -6 6 -1 11 2 17 5 13 3 -3 4 -12 1 -19z m123 -23 c0 -8 -4 -15 -10
-15 -5 0 -7 7 -4 15 4 8 8 15 10 15 2 0 4 -7 4 -15z m55 -26 c-4 -5 -18 -8
-33 -8 -24 2 -24 2 -4 6 12 2 22 9 22 14 0 6 5 7 10 4 6 -4 8 -11 5 -16z
m-477 4 c-10 -2 -28 -2 -40 0 -13 2 -5 4 17 4 22 1 32 -1 23 -4z m305 -20 c-7
-2 -19 -2 -25 0 -7 3 -2 5 12 5 14 0 19 -2 13 -5z m2372 -33 c-277 -8 -1357
-20 -1245 -13 109 6 1007 20 1265 20 l220 -1 -240 -6z m-1625 -29 c-33 -10
-728 -36 -737 -28 -3 4 32 7 78 8 46 0 199 7 339 14 316 15 354 16 320 6z
m-895 -41 c-66 -4 -187 -7 -270 -7 l-150 1 140 6 c77 3 199 6 270 6 l130 0
-120 -6z m-2298 -47 c-3 -10 -5 -4 -5 12 0 17 2 24 5 18 2 -7 2 -21 0 -30z
m3401 12 c-10 -10 -1223 -43 -1233 -34 -5 5 44 9 120 10 72 0 301 7 510 13
450 15 610 18 603 11z m-4349 -14 c10 -6 5 -13 -19 -25 -51 -25 -70 -21 -40 8
27 27 38 30 59 17z m6140 -125 c-2 -2 -179 -7 -394 -10 -214 -3 -460 -9 -545
-12 -111 -4 -152 -3 -145 5 7 7 107 12 290 14 660 6 798 7 794 3z m-1406 -23
c-68 -2 -178 -2 -245 0 -68 1 -13 3 122 3 135 0 190 -2 123 -3z m1320 0 c-7
-2 -21 -2 -30 0 -10 3 -4 5 12 5 17 0 24 -2 18 -5z m-2055 -10 c-21 -2 -57 -2
-80 0 -24 2 -7 4 37 4 44 0 63 -2 43 -4z m1840 0 c-26 -2 -71 -2 -100 0 -29 2
-8 3 47 3 55 0 79 -1 53 -3z m-220 -10 c-15 -2 -42 -2 -60 0 -18 2 -6 4 27 4
33 0 48 -2 33 -4z m-285 -10 c-18 -2 -48 -2 -65 0 -18 2 -4 4 32 4 36 0 50 -2
33 -4z m-500 -10 c-73 -2 -193 -2 -265 0 -73 1 -14 3 132 3 146 0 205 -2 133
-3z m-580 -10 c-40 -2 -107 -2 -150 0 -43 1 -10 3 72 3 83 0 118 -2 78 -3z
m-4076 -280 c-1 -54 -3 -12 -3 92 0 105 2 149 3 98 2 -51 2 -136 0 -190z m770
245 c-3 -8 -6 -5 -6 6 -1 11 2 17 5 13 3 -3 4 -12 1 -19z m101 -15 c-10 -2
-26 -2 -35 0 -10 3 -2 5 17 5 19 0 27 -2 18 -5z m140 -40 c-26 -2 -71 -2 -100
0 -29 2 -8 3 47 3 55 0 79 -1 53 -3z m-161 -9 c-3 -3 -12 -4 -19 -1 -8 3 -5 6
6 6 11 1 17 -2 13 -5z m-1037 -184 c0 -29 -4 -40 -15 -40 -8 0 -15 -7 -15 -15
0 -8 -4 -15 -9 -15 -5 0 -14 7 -21 15 -10 13 -9 15 9 15 18 0 21 6 21 40 0 29
4 40 15 40 11 0 15 -11 15 -40z m1531 -30 c63 -6 159 -18 214 -26 198 -31 175
-32 175 10 0 20 5 36 10 36 6 0 10 -48 10 -124 l0 -123 -47 9 c-27 5 -73 14
-103 20 -30 6 -73 16 -95 24 -54 18 -218 36 -252 28 -16 -4 -31 -12 -34 -17
-9 -13 -23 158 -14 172 3 6 10 9 14 6 5 -2 59 -9 122 -15z m2196 -2 c-3 -8 -6
-5 -6 6 -1 11 2 17 5 13 3 -3 4 -12 1 -19z m130 -45 c-3 -10 -5 -4 -5 12 0 17
2 24 5 18 2 -7 2 -21 0 -30z m-2510 -25 c-2 -13 -4 -5 -4 17 -1 22 1 32 4 23
2 -10 2 -28 0 -40z m2380 -60 c-2 -24 -4 -7 -4 37 0 44 2 63 4 43 2 -21 2 -57
0 -80z m-319 75 c-10 -2 -28 -2 -40 0 -13 2 -5 4 17 4 22 1 32 -1 23 -4z
m1259 1 c-3 -3 -12 -4 -19 -1 -8 3 -5 6 6 6 11 1 17 -2 13 -5z m-1419 -151
c-1 -65 -3 -100 -5 -78 -5 58 -13 75 -23 50 -7 -18 -8 -18 -15 7 -4 16 -11 25
-16 23 -4 -3 -12 9 -17 27 -8 30 -6 35 20 51 16 9 33 17 38 17 6 0 10 5 10 10
0 6 2 10 5 10 3 0 4 -53 3 -117z m241 95 c16 2 38 -1 49 -7 18 -10 19 -15 9
-46 -7 -23 -20 -39 -38 -47 -16 -7 -30 -19 -33 -28 -2 -8 -5 -1 -7 15 -1 17
-6 -6 -9 -50 -6 -70 -6 -64 -7 55 0 74 1 128 4 119 3 -11 12 -14 32 -11z
m-420 1 c15 23 22 -45 12 -114 -6 -42 -9 -50 -10 -25 -2 50 -19 25 -24 -35 -2
-27 -4 4 -5 70 -1 82 1 115 8 105 9 -13 11 -13 19 -1z m1167 -78 c3 -34 2 -41
-5 -26 -5 11 -10 30 -10 43 -1 12 -7 21 -13 20 -8 -2 -14 10 -16 27 l-4 30 23
-24 c14 -15 23 -39 25 -70z m444 24 c0 -35 -4 -67 -10 -70 -5 -3 -10 -2 -10 2
0 5 -10 9 -22 10 -47 4 -81 69 -50 96 20 17 33 21 67 23 24 2 25 0 25 -61z
m-1353 36 c10 -16 8 -27 -7 -58 -11 -21 -20 -33 -20 -28 0 6 -7 -1 -15 -15
-13 -23 -14 -20 -15 48 0 68 1 72 23 72 12 0 28 -9 34 -19z m91 -43 c-1 -40
-3 -50 -5 -28 -3 19 -10 38 -16 42 -9 6 -9 8 1 8 6 0 12 9 12 20 0 11 2 20 5
20 3 0 4 -28 3 -62z m-272 35 c8 -11 13 -41 12 -73 l-2 -55 -3 48 c-3 39 -8
47 -24 47 -14 0 -19 7 -19 25 0 29 17 33 36 8z m11 -165 c-3 -8 -6 -5 -6 6 -1
11 2 17 5 13 3 -3 4 -12 1 -19z m-1414 -30 l197 -2 0 -288 0 -288 -27 1 c-16
0 -50 4 -78 9 l-50 7 58 2 c31 0 57 5 57 10 0 5 -7 28 -15 51 -19 53 -19 96 0
149 13 38 13 41 -5 51 -11 6 -97 10 -199 10 l-180 0 -16 -31 c-9 -16 -20 -63
-25 -102 -8 -71 -17 -107 -27 -107 -3 0 -12 8 -19 18 -10 13 -13 76 -14 273
l0 255 73 -8 c39 -4 161 -8 270 -10z m3557 -36 c0 -22 6 -60 14 -85 12 -41 12
-48 -2 -69 -9 -13 -17 -25 -16 -28 0 -3 -15 -10 -33 -16 -37 -13 -43 -6 -43
57 l0 39 -115 0 c-70 0 -115 -4 -115 -10 0 -5 -4 -10 -10 -10 -14 0 -13 16 3
32 6 7 25 32 41 55 25 37 35 44 90 57 33 8 89 15 124 15 l62 1 0 -38z m-3250
-10 c0 -23 19 -42 35 -36 16 6 65 -38 64 -57 0 -12 -1 -12 -6 0 -3 7 -8 9 -12
4 -9 -13 -137 9 -134 23 1 7 3 28 5 48 2 30 6 36 25 36 15 0 23 -6 23 -18z
m-695 -202 c3 -154 1 -200 -8 -197 -7 2 -11 20 -10 43 2 36 1 37 -8 14 -6 -14
-8 -52 -5 -85 l5 -60 -13 50 c-6 28 -16 57 -20 64 -5 8 -4 16 3 20 9 6 9 15 1
36 -6 16 -11 56 -10 90 1 33 -2 72 -6 88 -4 19 -3 27 7 27 12 0 12 2 0 9 -8 5
-11 16 -6 30 5 16 12 20 31 15 22 -6 24 -3 24 32 0 20 3 35 6 32 3 -3 7 -97 9
-208z m2135 206 c0 -3 -4 -8 -10 -11 -5 -3 -10 -1 -10 4 0 6 5 11 10 11 6 0
10 -2 10 -4z m1468 -48 c2 -19 -3 -30 -18 -38 -11 -6 -18 -15 -15 -21 4 -5
-28 -9 -78 -9 l-85 0 8 34 c11 49 18 56 57 56 26 0 36 -5 40 -20 6 -22 18 -26
29 -9 3 6 1 15 -6 19 -10 6 -8 9 6 13 40 10 59 3 62 -25z m-210 -40 c2 -22 -1
-38 -7 -38 -6 0 -11 -7 -11 -15 0 -8 -6 -15 -12 -15 -10 0 -9 -3 1 -9 7 -5 10
-14 6 -20 -13 -22 -45 34 -45 81 0 53 2 55 38 54 24 -1 27 -5 30 -38z m-2450
18 c-2 -1 -12 -8 -22 -16 -18 -14 -18 -14 -6 7 8 12 18 19 23 16 4 -3 7 -6 5
-7z m-2181 -58 c-3 -8 -6 -5 -6 6 -1 11 2 17 5 13 3 -3 4 -12 1 -19z m2018 2
c3 -6 -1 -7 -9 -4 -18 7 -21 14 -7 14 6 0 13 -4 16 -10z m929 -36 c22 -8 20
-19 -4 -21 -11 -1 -20 4 -20 13 0 16 2 16 24 8z m1683 -26 c-3 -8 -6 -5 -6 6
-1 11 2 17 5 13 3 -3 4 -12 1 -19z m-4737 -18 c0 -5 -5 -10 -11 -10 -5 0 -7 5
-4 10 3 6 8 10 11 10 2 0 4 -4 4 -10z m-21 -63 c1 -5 -3 -5 -9 -2 -5 3 -10 16
-9 28 0 21 1 21 9 2 5 -11 9 -24 9 -28z m31 13 c0 -5 -5 -10 -11 -10 -5 0 -7
5 -4 10 3 6 8 10 11 10 2 0 4 -4 4 -10z m5280 -44 c0 -7 10 -21 23 -29 17 -12
18 -16 6 -16 -9 -1 -21 5 -26 12 -16 20 -23 47 -13 47 6 0 10 -6 10 -14z
m-3547 -6 c79 0 87 -2 87 -19 0 -18 -25 -36 -44 -32 -5 1 -5 -4 1 -11 13 -17
22 -78 11 -78 -4 0 -8 13 -8 28 0 38 -17 52 -61 52 -28 0 -42 -6 -53 -22 -14
-19 -26 -22 -87 -23 l-71 -1 5 49 c2 27 11 53 18 59 8 5 37 7 64 4 28 -3 89
-6 138 -6z m74 -102 c-2 -13 -4 -5 -4 17 -1 22 1 32 4 23 2 -10 2 -28 0 -40z
m3420 -10 c0 -7 -14 -14 -31 -15 l-31 -2 30 14 c17 7 30 14 31 14 0 1 1 -5 1
-11z m-3087 -18 c0 -5 -5 -10 -11 -10 -5 0 -7 5 -4 10 3 6 8 10 11 10 2 0 4
-4 4 -10z m3217 -14 c11 -11 -92 -6 -107 5 -11 7 1 9 43 6 32 -3 61 -8 64 -11z
m-516 -13 c13 -16 12 -17 -3 -4 -17 13 -22 21 -14 21 2 0 10 -8 17 -17z
m-3313 -50 c-16 -2 -40 -2 -55 0 -16 2 -3 4 27 4 30 0 43 -2 28 -4z m-221 -45
c-3 -8 -6 -5 -6 6 -1 11 2 17 5 13 3 -3 4 -12 1 -19z m546 -45 c-7 -2 -21 -2
-30 0 -10 3 -4 5 12 5 17 0 24 -2 18 -5z m1947 -359 c0 -6 -7 -17 -15 -24 -12
-10 -13 -16 -3 -28 11 -13 10 -15 -8 -10 -16 4 -20 2 -17 -11 3 -11 -5 -21
-24 -29 l-28 -12 28 5 c29 6 37 -11 15 -34 -11 -11 -9 -11 10 -2 12 6 22 21
22 32 0 11 4 18 9 15 5 -4 11 -1 13 6 3 8 7 6 11 -5 4 -11 1 -17 -9 -17 -19 0
-13 -25 7 -25 8 -1 17 4 21 9 15 23 18 -4 4 -38 -17 -41 -33 -46 -39 -13 -2
12 -3 6 -2 -13 2 -19 -1 -46 -5 -60 -7 -22 -8 -20 -11 15 -1 22 -2 47 -3 55
-1 10 -14 16 -43 18 -29 2 -43 8 -43 18 0 8 -6 14 -12 14 -7 0 -27 13 -45 28
-22 20 -29 32 -23 42 7 12 11 12 27 0 10 -8 28 -21 41 -28 19 -11 22 -10 22 7
0 11 -6 24 -12 28 -40 25 -41 40 -3 99 l37 58 39 -44 c22 -24 39 -50 39 -56z
m30 -36 c10 -21 10 -21 -3 -6 -8 10 -18 14 -22 10 -5 -4 -5 -1 -1 6 10 17 14
15 26 -10z m60 -20 c-1 -18 -8 -44 -16 -58 l-15 -25 5 34 c3 18 6 44 6 57 0
13 5 24 10 24 6 0 10 -15 10 -32z m-2066 -14 c9 -24 5 -25 -56 -18 -37 4 -55
11 -55 20 0 22 103 19 111 -2z m1760 -16 c-2 -17 -1 -28 3 -25 3 4 16 -1 27
-12 12 -10 30 -21 41 -24 11 -3 -1 -5 -26 -6 -40 -1 -47 2 -53 22 -9 33 -7 77
3 77 4 0 7 -14 5 -32z m-1749 -28 c29 -7 28 -8 -10 -8 -22 0 -51 4 -65 8 -23
7 -22 8 10 8 19 0 49 -4 65 -8z m1865 -92 c0 -4 -11 -8 -25 -8 -14 0 -25 4
-25 10 0 5 11 9 25 8 14 -1 25 -6 25 -10z m220 2 c11 -7 6 -10 -20 -10 -26 0
-31 3 -20 10 8 5 17 10 20 10 3 0 12 -5 20 -10z m-85 -30 c-3 -5 -10 -10 -16
-10 -5 0 -9 5 -9 10 0 6 7 10 16 10 8 0 12 -4 9 -10z m190 -10 c12 -6 -13 -7
-65 -3 -47 3 -87 7 -89 9 -9 8 135 2 154 -6z m-2105 -88 c0 -22 -3 -23 -37
-18 -21 3 -73 8 -115 12 -43 3 -75 10 -73 15 3 4 -9 10 -27 12 -18 3 31 4 109
3 143 -1 143 -1 143 -24z m1816 -7 c-3 -9 0 -15 9 -15 8 0 15 -4 15 -10 0 -5
-17 -10 -37 -9 -21 0 -32 3 -25 6 22 9 13 32 -15 36 -19 3 -14 4 16 6 35 1 42
-2 37 -14z m124 -105 c80 -5 191 -12 247 -16 92 -5 101 -8 100 -25 -2 -24 12
-24 -356 1 -337 22 -390 28 -371 40 10 6 8 9 -6 13 -23 7 187 0 386 -13z
m-1990 -170 c0 -5 -4 -10 -10 -10 -5 0 -10 5 -10 10 0 6 5 10 10 10 6 0 10 -4
10 -10z m4250 -102 c39 -18 42 -21 25 -28 -26 -11 -37 -12 -31 -2 2 4 -11 6
-30 4 -33 -4 -48 11 -21 21 7 4 3 8 -10 12 -13 4 -23 12 -23 17 0 11 27 4 90
-24z m-4250 -13 c0 -8 4 -15 10 -15 29 0 53 -125 26 -142 -12 -8 -107 1 -119
12 -4 3 6 5 23 2 29 -4 30 -3 30 33 0 31 -7 44 -40 75 -22 21 -40 40 -40 44 0
3 25 6 55 6 42 0 55 -3 55 -15z m-173 -161 c-3 -3 -12 -4 -19 -1 -8 3 -5 6 6
6 11 1 17 -2 13 -5z m1663 -20 c0 -8 -4 -12 -10 -9 -5 3 -10 10 -10 16 0 5 5
9 10 9 6 0 10 -7 10 -16z m-1430 -5 c12 -8 10 -9 -8 -4 l-23 7 21 -36 c27 -49
10 -46 -23 4 -26 40 -26 40 -4 40 12 0 29 -5 37 -11z m145 -36 c-10 -54 -22
-71 -21 -30 1 19 4 33 9 30 4 -2 7 5 7 16 0 12 3 21 6 21 3 0 3 -17 -1 -37z
m-405 -6 c-10 -8 -120 -17 -120 -9 0 4 28 9 62 10 35 2 61 2 58 -1z m267 -89
c-3 -8 -6 -5 -6 6 -1 11 2 17 5 13 3 -3 4 -12 1 -19z m-97 -8 c0 -12 -8 -12
-35 0 -18 8 -17 9 8 9 15 1 27 -3 27 -9z m1520 0 c0 -5 -5 -10 -11 -10 -5 0
-7 5 -4 10 3 6 8 10 11 10 2 0 4 -4 4 -10z m0 -95 c0 -36 -3 -65 -7 -65 -5 0
-6 29 -5 65 2 36 6 65 8 65 2 0 4 -29 4 -65z m-1359 11 c0 10 3 14 5 7 3 -6
-2 -24 -11 -40 -9 -15 -14 -20 -11 -10 3 10 1 28 -5 40 -10 21 -10 21 5 3 16
-20 16 -20 17 0z m-363 -13 c-16 -2 -40 -2 -55 0 -16 2 -3 4 27 4 30 0 43 -2
28 -4z m95 -10 c-7 -2 -19 -2 -25 0 -7 3 -2 5 12 5 14 0 19 -2 13 -5z m77 -13
c20 -6 21 -8 5 -8 -11 0 -31 4 -45 8 -20 6 -21 8 -5 8 11 0 31 -4 45 -8z m117
-22 c-3 -8 -6 -5 -6 6 -1 11 2 17 5 13 3 -3 4 -12 1 -19z m779 -87 c-9 -12
-12 -11 -14 3 -2 9 -1 25 3 34 6 15 8 15 15 -3 4 -12 3 -26 -4 -34z m471 -63
c-3 -8 -6 -5 -6 6 -1 11 2 17 5 13 3 -3 4 -12 1 -19z m-1412 -67 c-11 -9 -183
-26 -174 -16 7 6 108 22 154 24 17 0 25 -3 20 -8z m853 -142 c-2 -6 -8 -10
-13 -10 -5 0 -11 4 -13 10 -2 6 4 11 13 11 9 0 15 -5 13 -11z m-5 -104 c5 -67
4 -68 -8 -30 -7 22 -11 51 -9 65 1 14 3 29 3 34 3 26 9 -7 14 -69z m7 -85 c0
-5 -7 -10 -16 -10 -8 0 -12 5 -9 10 3 6 10 10 16 10 5 0 9 -4 9 -10z m-669
-201 c-7 -17 -10 -19 -10 -6 -1 19 -16 23 -24 7 -3 -6 -4 -5 -3 2 2 7 11 12
20 12 9 -1 16 3 16 9 0 6 2 8 5 5 3 -3 1 -16 -4 -29z m-18 -47 c-10 -10 -20
-14 -22 -9 -2 5 3 13 10 18 24 15 30 10 12 -9z m7 -97 c0 -7 -17 -11 -40 -11
-52 1 -52 21 0 21 23 1 40 -4 40 -10z m-60 -45 c0 -11 -4 -20 -10 -20 -5 0
-10 9 -10 20 0 11 5 20 10 20 6 0 10 -9 10 -20z m60 8 c0 -7 -5 -20 -10 -28
-8 -12 -10 -9 -10 13 0 15 5 27 10 27 6 0 10 -6 10 -12z m2050 -447 c-19 -11
-117 -26 -108 -17 3 4 28 11 55 16 66 11 70 11 53 1z"/>
<path d="M1671 4324 c-15 -41 -8 -53 19 -36 11 7 25 12 32 12 17 0 41 38 33
50 -4 6 -21 10 -39 10 -28 0 -34 -5 -45 -36z"/>
<path d="M1750 3603 l0 -43 40 0 c40 0 40 0 40 39 0 38 -1 39 -40 43 l-40 4 0
-43z"/>
<path d="M1400 3530 c0 -5 9 -10 20 -10 11 0 20 5 20 10 0 6 -9 10 -20 10 -11
0 -20 -4 -20 -10z"/>
<path d="M1808 3293 c6 -2 18 -2 25 0 6 3 1 5 -13 5 -14 0 -19 -2 -12 -5z"/>
<path d="M1883 3293 c9 -2 23 -2 30 0 6 3 -1 5 -18 5 -16 0 -22 -2 -12 -5z"/>
<path d="M1768 3243 c7 -3 16 -2 19 1 4 3 -2 6 -13 5 -11 0 -14 -3 -6 -6z"/>
<path d="M1848 2333 c6 -2 18 -2 25 0 6 3 1 5 -13 5 -14 0 -19 -2 -12 -5z"/>
</g>
</svg>
