<svg width="111" height="107" viewBox="0 0 111 107" fill="none" xmlns="http://www.w3.org/2000/svg">
<g clip-path="url(#clip0_1_816)">
<path d="M72.122 47.608C72.4931 44.1312 74.173 41.7221 77.435 40.6218C81.7517 39.1568 86.4461 42.1258 87.0842 46.6835C87.1819 47.3736 87.3837 47.6471 88.1325 47.6276C90.1053 47.569 92.0781 47.6015 94.0509 47.608C95.7373 47.608 96.3623 48.2331 96.3623 49.8999C96.3623 57.5763 96.3623 65.2528 96.3623 72.9292C96.3623 77.6041 92.7292 81.146 87.9372 81.146C76.1002 81.146 64.2633 81.146 52.4328 81.146C48.8648 81.146 45.2968 81.0549 41.7353 81.1656C37.4446 81.3023 33.1083 78.0403 33.1408 72.493C33.2059 62.3749 33.1799 52.2569 33.1799 42.1388C33.1799 36.8519 33.1604 31.5585 33.1669 26.2716C33.1669 22.5017 35.0616 19.5132 38.3171 18.2891C39.3328 17.905 40.4722 17.6901 41.553 17.6836C49.1708 17.6315 56.7952 17.6511 64.413 17.6576C65.8324 17.6576 66.5161 18.3087 66.5226 19.7346C66.5421 22.6645 66.5356 25.5945 66.5226 28.5244C66.5226 29.7224 65.9691 30.3084 64.7711 30.4321C64.1526 30.4972 63.521 30.4712 62.922 30.6209C61.0208 31.0897 59.8228 32.8281 59.9595 34.8205C60.0832 36.6371 61.5156 38.115 63.4038 38.356C63.8335 38.408 64.2633 38.4211 64.693 38.4471C65.9301 38.5383 66.5161 39.1242 66.5291 40.3548C66.5486 42.4969 66.5616 44.639 66.5096 46.7811C66.49 47.4974 66.7309 47.6471 67.3885 47.6276C68.9512 47.582 70.5138 47.6145 72.1415 47.6145L72.122 47.608ZM62.9676 47.6015C62.9676 46.0129 62.922 44.5218 62.9871 43.0373C63.0197 42.23 62.8178 41.8914 61.9714 41.67C58.5597 40.778 56.2418 37.6528 56.372 34.3061C56.5152 30.6535 58.8722 27.7952 62.3556 27.0855C62.8243 26.9878 62.9871 26.8055 62.9806 26.3367C62.9611 24.8717 62.935 23.4068 62.9806 21.9418C62.9936 21.3688 62.8439 21.193 62.2644 21.193C55.2651 21.2126 48.2658 21.193 41.273 21.2191C40.648 21.2191 39.9708 21.3819 39.4109 21.6553C37.5292 22.5799 36.6698 24.149 36.6763 26.2521C36.6893 33.1407 36.6893 40.0293 36.6698 46.9179C36.6698 47.5429 36.9172 47.6211 37.4446 47.6145C39.4955 47.5885 41.553 47.5755 43.604 47.595C45.2382 47.608 45.7916 48.2331 45.8958 49.8673C45.9414 50.6356 46.0521 51.456 46.3776 52.1397C47.1915 53.8325 49.0602 54.5813 50.9028 54.106C52.6282 53.6567 53.8197 52.0615 53.8262 50.1734C53.8327 48.0833 54.3275 47.5885 56.4045 47.5885C58.5597 47.5885 60.7148 47.5885 62.9806 47.5885L62.9676 47.6015ZM77.9103 77.5585C81.3676 77.5585 84.8314 77.552 88.2887 77.5585C89.5779 77.5585 90.6457 77.0897 91.5312 76.1521C92.6185 75.0062 92.866 73.6194 92.8529 72.1023C92.8204 65.3765 92.8139 58.6441 92.8334 51.9183C92.8334 51.2607 92.6055 51.1565 92.0326 51.163C89.8449 51.1826 87.6572 51.176 85.463 51.163C84.3431 51.1565 83.705 50.551 83.6139 49.4376C83.5748 48.9233 83.5878 48.4089 83.5878 47.8945C83.6008 45.6092 81.8819 43.8447 79.6357 43.8447C77.474 43.8447 75.7226 45.6352 75.7096 47.8685C75.7096 48.3568 75.7226 48.8451 75.7096 49.3334C75.677 50.4989 74.9868 51.176 73.8149 51.1826C71.6272 51.1826 69.4395 51.1956 67.2453 51.176C66.6919 51.176 66.4705 51.3388 66.477 51.9118C66.4965 53.3507 66.477 54.7896 66.451 56.222C66.4444 56.6843 66.5877 56.8601 67.0695 56.9513C67.9355 57.1141 68.8405 57.2768 69.6218 57.6675C72.7405 59.2301 74.2967 62.3684 73.7302 65.7606C73.2028 68.925 70.5659 71.3861 67.1867 71.8549C66.7179 71.92 66.477 72.0502 66.49 72.6102C66.5226 74.0491 66.5096 75.488 66.464 76.9204C66.4444 77.4999 66.6919 77.578 67.1867 77.578C70.7547 77.5585 74.3227 77.5715 77.8907 77.5715L77.9103 77.5585ZM57.4007 51.1695C57.3551 51.43 57.3096 51.6123 57.2835 51.7946C56.6389 56.515 52.4849 59.4515 47.9012 58.2665C44.6653 57.4266 42.9073 55.1087 42.3864 51.8467C42.2953 51.2672 42.0934 51.15 41.566 51.163C40.2183 51.1956 38.864 51.2021 37.5162 51.15C36.8651 51.124 36.6763 51.3649 36.6828 51.9899C36.7023 54.8352 36.6828 57.687 36.6828 60.5323C36.6828 64.6277 36.6633 68.7231 36.6828 72.8185C36.6958 75.6247 38.6686 77.5585 41.4423 77.565C48.383 77.565 55.3237 77.5845 62.2644 77.5845C62.4923 77.5845 62.7202 77.539 62.9871 77.5129C62.9871 76.966 62.9871 76.5037 62.9871 76.048C62.9871 74.2574 62.9611 72.4669 62.9871 70.6829C63.0066 69.0487 63.5536 68.5148 65.1618 68.4041C65.7478 68.365 66.3598 68.3194 66.9132 68.1436C68.7233 67.5511 69.8367 65.676 69.5567 63.8073C69.2767 61.9191 67.6945 60.4346 65.7608 60.4607C63.8466 60.4867 62.909 60.2654 62.9741 57.4656C63.0197 55.597 62.9741 53.7218 62.9871 51.8532C62.9871 51.3649 62.8374 51.1695 62.3425 51.176C60.7213 51.1956 59.1066 51.1826 57.4072 51.1826L57.4007 51.1695Z" fill="white"/>
<path d="M22.6189 17.6704C18.3998 18.5624 14.9815 20.6068 12.2794 23.7451C8.3989 28.2507 6.3805 33.4725 6.81674 39.5147C6.99904 42.054 7.57852 44.4826 8.91327 46.6963C9.29742 47.3409 9.62297 47.393 10.2676 47.0479C14.9229 44.5477 19.8257 44.2417 24.8847 45.5048C25.692 45.7066 26.3366 46.1168 26.545 46.9893C26.8575 48.2785 25.5879 49.4244 24.2206 49.0272C21.4339 48.2199 18.6211 48.1092 15.8084 48.7277C9.55135 50.1015 4.57045 55.1801 3.72403 61.359C2.81249 68.0067 6.47166 74.3093 12.7808 77.07C13.0998 77.2132 13.4319 77.3369 13.7509 77.4736C14.9489 78.001 15.281 78.5545 14.988 79.8436C13.5556 86.1007 17.384 91.7131 22.1501 93.9073C24.3443 94.9165 26.6492 95.1053 28.9671 94.7342C30.3669 94.5128 31.2329 94.8514 31.7603 96.5638C32.9387 100.412 36.6174 103.153 40.5826 103.329C44.652 103.511 47.3475 100.112 47.3605 96.7656C47.3736 94.1613 47.3605 91.5569 47.3605 88.9525C47.3605 87.7024 48.0312 86.882 49.1055 86.8429C50.1407 86.8104 50.9025 87.6633 50.909 88.9004C50.9155 91.5829 50.883 94.2719 50.922 96.9545C50.9741 100.164 53.5004 103.055 56.4759 103.257C60.2718 103.518 63.2603 102 65.3894 98.8622C65.8973 98.1134 66.2554 97.2409 66.5744 96.3815C67.1604 94.7863 67.6031 94.4868 69.2895 94.7603C74.8498 95.6458 80.0651 92.7093 82.5458 87.2987C82.7021 86.9536 82.8388 86.602 83.0081 86.2635C83.3922 85.5082 84.2387 85.1631 85.0656 85.3975C85.8078 85.6124 86.3547 86.3155 86.2571 87.1164C86.1985 87.6438 86.0227 88.1777 85.8013 88.6595C83.3727 93.9138 79.375 97.2084 73.6779 98.2827C72.571 98.491 71.4186 98.478 70.2857 98.4715C69.8038 98.4715 69.589 98.5952 69.3741 99.0249C67.2906 103.277 63.9505 105.914 59.2756 106.701C55.3235 107.366 52.0484 106.102 49.4896 102.99C49.4375 102.925 49.3985 102.86 49.3399 102.801C49.3008 102.762 49.2487 102.743 49.1706 102.697C49.0925 102.736 48.9753 102.762 48.9167 102.834C45.3486 107.359 40.2961 107.782 35.4845 105.634C32.4504 104.279 30.2562 102.033 28.8824 98.9989C28.6871 98.5627 28.4527 98.3934 27.9644 98.4259C20.0731 98.9468 13.1259 93.3018 11.4916 85.6579C11.1726 84.1734 11.2377 82.5913 11.2442 81.0547C11.2442 80.4752 11.153 80.2017 10.6257 79.9348C5.67732 77.4736 2.21999 73.6322 0.735493 68.2867C-1.12013 61.5739 0.559696 55.6489 5.33224 50.6094C5.70336 50.2187 6.12658 49.8802 6.54328 49.496C4.92205 47.2302 4.04306 44.7756 3.58079 42.1581C2.61716 36.702 3.4701 31.5388 6.02891 26.6425C9.2258 20.5352 14.0179 16.3096 20.6981 14.4996C22.1761 14.1024 22.8467 13.6076 23.2765 12.0254C25.6465 3.32022 34.7879 -1.80391 43.48 0.585615C45.57 1.15858 47.315 2.298 48.6497 4.03643C48.9232 4.39453 49.1445 4.72008 49.5547 4.16014C51.3778 1.69248 53.9236 0.546549 56.8731 0.155891C60.2327 -0.286855 63.4426 0.188446 66.4637 1.75108C67.6552 2.36962 67.8636 3.6653 66.9781 4.58986C66.3726 5.22143 65.6433 5.28653 64.9011 4.90239C62.6613 3.76297 60.2848 3.4244 57.8172 3.62624C55.3039 3.83459 53.0837 4.70055 51.8336 7.05101C51.3387 7.97556 51.1109 9.07592 50.9416 10.1307C50.7983 11.0553 50.922 12.0254 50.9025 12.976C50.8765 13.9917 50.1342 14.734 49.1641 14.7535C48.22 14.773 47.4191 14.0243 47.3801 13.0281C47.341 11.9147 47.4387 10.7948 47.3085 9.69446C46.9438 6.57571 44.8148 4.38151 41.696 3.78901C35.2371 2.56495 28.9345 6.17854 26.838 12.377C25.7246 15.6715 25.9069 18.927 27.3133 22.1239C27.8016 23.2308 27.131 24.3572 25.959 24.5525C25.2102 24.6762 24.4029 24.3181 24.1034 23.4261C23.5564 21.7918 23.1658 20.112 22.7165 18.4452C22.6579 18.2238 22.6579 17.9829 22.6189 17.6639V17.6704Z" fill="white"/>
<path d="M110.439 20.4963C110.439 24.4029 110.439 28.3094 110.439 32.216C110.439 33.8438 109.925 34.3907 108.323 34.4037C105.51 34.4298 102.704 34.4298 99.8913 34.4037C98.3286 34.3907 97.7687 33.8438 97.7166 32.2421C97.684 31.1938 97.5538 30.2041 96.8637 29.3447C95.7959 28.0165 94.1486 27.5021 92.5013 28.0295C90.9517 28.5243 89.8839 29.9697 89.8188 31.6365C89.7276 34.1172 89.4021 34.4298 86.954 34.4232C84.4407 34.4232 81.9275 34.4232 79.4143 34.4232C77.5717 34.4232 77.0443 33.8828 77.0508 32.0598C77.0638 30.0544 77.0378 28.0425 77.0703 26.0371C77.0768 25.4381 76.9271 25.1842 76.2825 25.1191C72.6624 24.7414 69.8301 21.6292 69.7455 17.9961C69.6608 14.1351 72.2587 10.86 75.9374 10.3261C76.8099 10.2024 77.1159 9.93549 77.0768 9.02395C77.0052 7.07718 77.0508 5.11737 77.0638 3.16408C77.0703 1.57541 77.7149 0.917798 79.2645 0.917798C86.967 0.917798 94.663 0.898266 102.365 0.924309C106.76 0.943842 110.374 4.55743 110.413 8.94582C110.452 12.8003 110.42 16.6483 110.42 20.5028H110.433L110.439 20.4963ZM80.5797 30.8943C82.4354 30.8943 84.1868 30.9138 85.9317 30.8683C86.101 30.8683 86.3615 30.4906 86.4071 30.2497C86.8433 28.1662 87.9827 26.5775 89.7342 25.4381C94.0965 22.5993 99.9629 25.067 101.05 30.1716C101.141 30.5948 101.213 30.9334 101.786 30.9203C103.244 30.8878 104.703 30.8878 106.161 30.9203C106.721 30.9269 106.91 30.738 106.904 30.1651C106.884 23.1983 106.904 16.2251 106.878 9.25835C106.871 6.47166 104.931 4.47279 102.138 4.45977C95.2229 4.4207 88.3083 4.45977 81.3936 4.44674C80.7881 4.44674 80.5537 4.60301 80.5667 5.28015C80.6188 7.33761 80.5993 9.40159 80.5862 11.4656C80.5732 13.1324 79.9807 13.7184 78.3465 13.7184C77.9428 13.7184 77.5326 13.7119 77.1289 13.7184C75.1496 13.777 73.4177 15.3982 73.2809 17.3254C73.1312 19.422 74.518 21.2646 76.5625 21.6031C77.2526 21.7138 77.9623 21.6943 78.659 21.7073C79.9742 21.7399 80.5797 22.3519 80.5797 23.6736C80.5797 26.0306 80.5797 28.3876 80.5797 30.9073V30.8943Z" fill="white"/>
</g>
<defs>
<clipPath id="clip0_1_816">
<rect width="110.446" height="106.904" fill="white"/>
</clipPath>
</defs>
</svg>
